<svg width="32" height="32" viewBox="0 0 32 32" fill="none" xmlns="http://www.w3.org/2000/svg">
  <!-- Background with gradient -->
  <rect width="32" height="32" rx="6" fill="url(#gradient)"/>
  
  <!-- Document/Sheet shape -->
  <path d="M8 6C8 5.44772 8.44772 5 9 5H15L20 10V26C20 26.5523 19.5523 27 19 27H9C8.44772 27 8 26.5523 8 26V6Z" fill="white" fill-opacity="0.95"/>
  
  <!-- Folded corner -->
  <path d="M15 5V10H20" stroke="white" stroke-opacity="0.8" stroke-width="1.2" stroke-linecap="round" stroke-linejoin="round"/>
  
  <!-- Text lines (representing character sheet content) -->
  <line x1="10" y1="13" x2="18" y2="13" stroke="#1e40af" stroke-width="1.2" stroke-linecap="round" opacity="0.7"/>
  <line x1="10" y1="16" x2="17" y2="16" stroke="#1e40af" stroke-width="1.2" stroke-linecap="round" opacity="0.7"/>
  <line x1="10" y1="19" x2="16" y2="19" stroke="#1e40af" stroke-width="1.2" stroke-linecap="round" opacity="0.7"/>
  
  <!-- Dice icon (representing RPG) -->
  <rect x="21" y="7" width="4" height="4" rx="0.5" fill="#ef4444" stroke="white" stroke-width="1"/>
  <circle cx="22.5" cy="8.5" r="0.4" fill="white"/>
  <circle cx="23.5" cy="9.5" r="0.4" fill="white"/>
  
  <defs>
    <linearGradient id="gradient" x1="0" y1="0" x2="32" y2="32" gradientUnits="userSpaceOnUse">
      <stop offset="0%" stop-color="#3b82f6"/>
      <stop offset="50%" stop-color="#2563eb"/>
      <stop offset="100%" stop-color="#1e40af"/>
    </linearGradient>
  </defs>
</svg>
